#!OML:ASF F:\VICON\USERDATA\INSTALL\rory3\rory3.ASF
:FULLY-SPECIFIED
:DEGREES
39
root 3.71068 17.623 3.40394 18.3382 -18.0104 -1.19016
lowerback -8.57674 3.88062 3.46478
upperback -12.1633 4.98293 -0.221639
thorax -7.76382 2.15804 -2.05578
lowerneck -3.46743 16.2924 12.2916
upperneck 16.9046 20.4532 4.20931
head 6.58961 10.9508 1.01983
rclavicle 4.58696e-014 1.55052e-014
rhumerus 7.34683 -22.3565 9.04841
rradius 118.739
rwrist -57.7152
rhand -7.4198 -45.6146
rfingers 7.12502
rthumb 18.467 -74.758
lclavicle 4.58696e-014 1.55052e-014
lhumerus 27.2756 24.3493 -21.2347
lradius 32.5684
lwrist 32.9692
lhand -27.3618 -24.7332
lfingers 7.12502
lthumb -0.769515 5.2452
rfemur 0.0453052 2.85616 -4.20167
rtibia -2.22639e-014
rfoot -35.0776 -19.2915
rtoes 53.7745
lfemur -21.3465 -1.22124 -25.9321
ltibia 17.1295
lfoot -11.592 13.335
ltoes 9.53644
40
root 3.71434 17.624 3.39628 18.2914 -18.0431 -1.09581
lowerback -8.47697 3.84783 3.29116
upperback -12.1992 4.95103 -0.204002
thorax -7.87661 2.15411 -1.9516
lowerneck -3.44101 16.2208 12.2435
upperneck 17.1244 20.3665 4.18565
head 6.65148 10.9116 1.02016
rclavicle -2.88735e-014 -7.55382e-015
rhumerus 7.42101 -22.2908 9.01931
rradius 118.785
rwrist -57.816
rhand -7.33153 -45.5329
rfingers 7.12502
rthumb 18.5519 -74.6683
lclavicle -2.88735e-014 -7.55382e-015
lhumerus 27.1491 24.0577 -21.3461
lradius 32.7045
lwrist 33.473
lhand -27.2361 -24.9058
lfingers 7.12502
lthumb -0.648103 5.07298
rfemur 0.0383065 2.86542 -4.30415
rtibia 2.8625e-014
rfoot -35.0833 -19.2262
rtoes 53.7648
lfemur -21.3682 -1.22 -26.0407
ltibia 17.1603
lfoot -11.6677 13.2992
ltoes 9.93015
41
root 3.71857 17.6242 3.39517 18.3239 -18.0553 -1.14463
lowerback -8.50747 3.84787 3.32369
upperback -12.243 4.94917 -0.198383
thorax -7.90713 2.14927 -1.96338
lowerneck -3.58416 16.1583 12.2012
upperneck 17.5715 20.2379 4.32192
head 6.79893 10.8696 1.09107
rclavicle 2.94698e-014 1.59028e-015
rhumerus 7.54249 -22.1416 8.85194
rradius 118.778
rwrist -57.9776
rhand -7.2195 -45.5213
rfingers 7.12502
rthumb 18.6597 -74.6463
lclavicle 2.94698e-014 1.59028e-015
lhumerus 27.0862 23.8134 -21.3681
lradius 32.8206
lwrist 33.7077
lhand -26.6194 -25.4155
lfingers 7.12502
lthumb -0.0525001 4.56421
rfemur 0.00937649 2.88246 -4.25881
rtibia -1.59028e-014
rfoot -35.2457 -18.9036
rtoes 53.7224
lfemur -21.3879 -1.24445 -26.0064
ltibia 17.1573
lfoot -11.6723 13.3286
ltoes 9.83476
42
root 3.72293 17.6234 3.39791 18.3597 -18.1736 -1.16663
lowerback -8.64678 3.89333 3.32055
upperback -12.1764 4.99938 -0.238067
thorax -7.74729 2.17741 -1.98899
lowerneck -4.03083 16.1336 12.1614
upperneck 18.021 20.1129 4.46889
head 6.99755 10.828 1.19369
rclavicle -3.63776e-014 -2.74323e-014
rhumerus 7.5524 -22.0756 8.67324
rradius 118.772
rwrist -58.0133
rhand -7.1616 -45.5983
rfingers 7.12502
rthumb 18.7154 -74.718
lclavicle -3.63776e-014 -2.74323e-014
lhumerus 27.0161 23.9001 -21.3639
lradius 32.9026
lwrist 33.7781
lhand -26.1204 -25.7051
lfingers 7.12502
lthumb 0.42944 4.2742
rfemur -0.0746826 2.97808 -4.29244
rtibia 3.18055e-015
rfoot -34.8407 -19.8498
rtoes 53.2623
lfemur -21.4509 -1.19983 -26.0335
ltibia 17.2271
lfoot -11.7542 13.4064
ltoes 9.88548
43
root 3.72898 17.6245 3.39456 18.4306 -18.2862 -1.28025
lowerback -8.73701 3.97688 3.39191
upperback -12.1266 5.10262 -0.250138
thorax -7.6284 2.22634 -2.02888
lowerneck -4.14405 16.0604 12.146
upperneck 18.2064 19.9904 4.49531
head 7.06936 10.7748 1.21202
rclavicle -2.23633e-014 -1.78906e-014
rhumerus 7.51794 -22.0631 8.54662
rradius 118.737
rwrist -57.8889
rhand -7.14692 -45.6233
rfingers 7.12502
rthumb 18.7295 -74.7417
lclavicle -2.23633e-014 -1.78906e-014
lhumerus 27.0897 24.112 -21.1958
lradius 32.9155
lwrist 33.7255
lhand -27.2842 -25.4804
lfingers 7.12502
lthumb -0.694558 4.49819
rfemur -0.207153 3.0917 -4.23221
rtibia 6.36111e-015
rfoot -34.2128 -21.0538
rtoes 52.9595
lfemur -21.5729 -1.16478 -25.9499
ltibia 17.3497
lfoot -11.8383 13.4889
ltoes 10.2621
44
root 3.73398 17.6276 3.38795 18.5673 -18.3024 -1.48712
lowerback -8.79132 4.03685 3.53352
upperback -12.1544 5.17805 -0.202843
thorax -7.61903 2.25479 -2.05178
lowerneck -3.91481 15.9299 12.1687
upperneck 18.229 19.8647 4.36799
head 7.05002 10.7084 1.13978
rclavicle -4.22914e-014 -2.20651e-014
rhumerus 7.53519 -22.0399 8.4321
rradius 118.702
rwrist -57.801
rhand -7.33534 -45.6129
rfingers 7.12502
rthumb 18.5483 -74.7486
lclavicle -4.22914e-014 -2.20651e-014
lhumerus 27.2282 24.2922 -20.9252
lradius 32.835
lwrist 33.6055
lhand -28.5654 -25.0088
lfingers 7.12502
lthumb -1.93199 4.96217
rfemur -0.364492 3.13505 -4.02513
rtibia -6.36111e-015
rfoot -34.5549 -20.6052
rtoes 53.1387
lfemur -21.749 -1.14698 -25.7389
ltibia 17.4618
lfoot -11.8394 13.5344
ltoes 10.369
45
root 3.73744 17.6293 3.38463 18.6451 -18.2657 -1.58497
lowerback -8.8196 4.03457 3.56033
upperback -12.1596 5.17518 -0.156493
thorax -7.6116 2.25365 -2.01607
lowerneck -3.88268 15.8426 12.097
upperneck 18.2494 19.7786 4.24942
head 7.0524 10.6549 1.10206
rclavicle -1.35671e-014 -1.47101e-014
rhumerus 7.64367 -22.0599 8.25799
rradius 118.676
rwrist -57.7317
rhand -7.35666 -45.7623
rfingers 7.12502
rthumb 18.5278 -74.8999
lclavicle -1.35671e-014 -1.47101e-014
lhumerus 27.1166 24.2482 -20.9346
lradius 32.8951
lwrist 33.972
lhand -28.4961 -24.5349
lfingers 7.12502
lthumb -1.86506 5.43665
rfemur -0.475617 3.1132 -3.89471
rtibia -3.18055e-015
rfoot -34.5623 -20.9567
rtoes 52.9322
lfemur -21.8864 -1.00045 -25.6689
ltibia 17.5757
lfoot -11.858 13.3936
ltoes 10.1067
46
root 3.74217 17.6319 3.38156 18.7477 -18.1314 -1.65081
lowerback -8.77297 3.99754 3.58922
upperback -12.252 5.1305 -0.135104
thorax -7.74454 2.22544 -2.01862
lowerneck -3.90983 15.7812 11.9428
upperneck 18.4503 19.6867 4.36135
head 7.09187 10.6163 1.15579
rclavicle 3.8763e-014 1.27222e-014
rhumerus 7.73506 -21.9516 8.06852
rradius 118.693
rwrist -57.623
rhand -7.12583 -45.918
rfingers 7.12502
rthumb 18.7498 -75.0344
lclavicle 3.8763e-014 1.27222e-014
lhumerus 27.0125 24.0235 -21.0209
lradius 33.0568
lwrist 34.5015
lhand -28.1092 -24.4514
lfingers 7.12502
lthumb -1.49142 5.52318
rfemur -0.570703 2.98354 -3.76891
rtibia 1.59028e-014
rfoot -33.372 -23.0831
rtoes 52.3451
lfemur -22.0434 -0.902491 -25.6129
ltibia 17.6646
lfoot -11.9306 13.1656
ltoes 10.0717
47
root 3.74862 17.6366 3.37483 18.9555 -17.9126 -1.75245
lowerback -8.73729 3.92413 3.66581
upperback -12.4037 5.03699 -0.101056
thorax -7.9393 2.1669 -2.03713
lowerneck -3.90747 15.7457 11.8421
upperneck 18.7904 19.615 4.54069
head 7.17276 10.5995 1.23159
rclavicle -4.30369e-014 -2.36554e-014
rhumerus 7.854 -21.7894 7.84832
rradius 118.725
rwrist -57.5519
rhand -7.27673 -45.9946
rfingers 7.12502
rthumb 18.6047 -75.1249
lclavicle -4.30369e-014 -2.36554e-014
lhumerus 27.121 24.0997 -20.7943
lradius 33.0398
lwrist 34.4779
lhand -27.2954 -24.9156
lfingers 7.12502
lthumb -0.705355 5.06302
rfemur -0.687896 2.75295 -3.59214
rtibia 4.13472e-014
rfoot -32.7885 -24.0354
rtoes 52.0233
lfemur -22.3 -0.840174 -25.4977
ltibia 17.7028
lfoot -11.9545 12.9002
ltoes 10.1512
48
root 3.75626 17.6366 3.3684 18.9225 -17.8592 -1.76019
lowerback -8.72873 3.87261 3.68715
upperback -12.2998 4.96775 -0.0674521
thorax -7.83194 2.1363 -2.01147
lowerneck -4.069 15.7127 11.674
upperneck 18.9456 19.5532 4.59151
head 7.22554 10.5666 1.28188
rclavicle 4.57702e-014 1.19271e-014
rhumerus 8.06955 -21.8873 7.61076
rradius 118.684
rwrist -57.4782
rhand -7.71163 -46.0421
rfingers 7.12502
rthumb 18.1863 -75.212
lclavicle 4.57702e-014 1.19271e-014
lhumerus 27.1917 24.6268 -20.4009
lradius 32.8771
lwrist 34.0492
lhand -26.294 -25.4909
lfingers 7.12502
lthumb 0.261785 4.48868
rfemur -0.635768 2.72252 -3.57204
rtibia 3.18055e-015
rfoot -33.5295 -23.1911
rtoes 52.3029
lfemur -22.3039 -0.804731 -25.5107
ltibia 17.7166
lfoot -11.9284 12.8375
ltoes 10.1793
49
root 3.76135 17.6338 3.3653 18.7817 -18.0083 -1.71163
lowerback -8.83666 3.90392 3.62849
upperback -12.0396 4.99985 -0.0791291
thorax -7.47895 2.16923 -1.97133
lowerneck -4.21588 15.6127 11.5747
upperneck 18.8373 19.4334 4.43067
head 7.21535 10.4861 1.23963
rclavicle -3.29486e-014 3.57812e-015
rhumerus 8.15457 -22.1207 7.50251
rradius 118.636
rwrist -57.4486
rhand -7.71351 -45.8951
rfingers 7.12502
rthumb 18.1845 -75.0651
lclavicle -3.29486e-014 3.57812e-015
lhumerus 27.0945 24.9974 -20.3144
lradius 32.7846
lwrist 33.8411
lhand -25.9802 -25.8992
lfingers 7.12502
lthumb 0.564893 4.07981
rfemur -0.588648 2.88776 -3.67192
rtibia 2.8625e-014
rfoot -34.6086 -21.7667
rtoes 53.0245
lfemur -22.1835 -0.782661 -25.6068
ltibia 17.7291
lfoot -11.9252 12.9616
ltoes 10.2689
50
root 3.76345 17.6375 3.35416 18.9343 -18.0601 -1.73802
lowerback -8.99407 3.9453 3.55722
upperback -11.9905 5.04621 -0.127306
thorax -7.33364 2.20049 -1.96771
lowerneck -4.16204 15.515 11.6996
upperneck 18.71 19.33 4.22139
head 7.19526 10.4241 1.14172
rclavicle -6.51517e-014 -2.62396e-014
rhumerus 7.96997 -22.2063 7.52821
rradius 118.683
rwrist -57.605
rhand -7.16264 -45.6636
rfingers 7.12502
rthumb 18.7144 -74.7834
lclavicle -6.51517e-014 -2.62396e-014
lhumerus 26.9819 24.9177 -20.4994
lradius 32.9005
lwrist 34.1178
lhand -26.8327 -25.5662
lfingers 7.12502
lthumb -0.258527 4.4134
rfemur -0.842071 2.88438 -3.63612
rtibia -6.36111e-015
rfoot -34.8931 -21.5607
rtoes 53.1008
lfemur -22.4096 -0.66271 -25.5993
ltibia 17.7473
lfoot -11.8759 12.8796
ltoes 10.3507
